<svg xmlns="http://www.w3.org/2000/svg" viewBox="0 0 1360 770" width="1360" height="770" font-family="Inter, 'Segoe UI', 'Helvetica Neue', Arial, sans-serif"><rect width="1360" height="770" fill="#ffffff"/><defs><marker id="ar--475569" viewBox="0 0 10 10" refX="9" refY="5" markerWidth="7" markerHeight="7" orient="auto-start-reverse"><path d="M 0 0 L 10 5 L 0 10 z" fill="#475569"/></marker><marker id="ar--7c3aed" viewBox="0 0 10 10" refX="9" refY="5" markerWidth="7" markerHeight="7" orient="auto-start-reverse"><path d="M 0 0 L 10 5 L 0 10 z" fill="#7c3aed"/></marker><marker id="ar--94a3b8" viewBox="0 0 10 10" refX="9" refY="5" markerWidth="7" markerHeight="7" orient="auto-start-reverse"><path d="M 0 0 L 10 5 L 0 10 z" fill="#94a3b8"/></marker><marker id="ar--0d9488" viewBox="0 0 10 10" refX="9" refY="5" markerWidth="7" markerHeight="7" orient="auto-start-reverse"><path d="M 0 0 L 10 5 L 0 10 z" fill="#0d9488"/></marker><filter id="sh" x="-20%" y="-20%" width="140%" height="140%"><feDropShadow dx="0" dy="2" stdDeviation="3" flood-color="#0f172a" flood-opacity="0.10"/></filter></defs><rect x="29.0" y="70" width="122" height="42" rx="11" fill="#f1f5f9" stroke="#334155" stroke-width="2" filter="url(#sh)"/>
<rect x="29.0" y="70" width="6" height="42" rx="3" fill="#334155"/>
<text x="90.0" y="97" font-family="Inter, 'Segoe UI', 'Helvetica Neue', Arial, sans-serif" font-size="12.5" font-weight="700" fill="#0f172a" text-anchor="middle" style="">Config</text>
<line x1="90.0" y1="114" x2="90.0" y2="744" stroke="#94a3b8" stroke-width="1.4" stroke-dasharray="4 6"/>
<rect x="197.57142857142856" y="70" width="122" height="42" rx="11" fill="#eef2ff" stroke="#4f46e5" stroke-width="2" filter="url(#sh)"/>
<rect x="197.57142857142856" y="70" width="6" height="42" rx="3" fill="#4f46e5"/>
<text x="258.57142857142856" y="97" font-family="Inter, 'Segoe UI', 'Helvetica Neue', Arial, sans-serif" font-size="12.5" font-weight="700" fill="#0f172a" text-anchor="middle" style="">Analysts</text>
<line x1="258.57142857142856" y1="114" x2="258.57142857142856" y2="744" stroke="#94a3b8" stroke-width="1.4" stroke-dasharray="4 6"/>
<rect x="366.14285714285717" y="70" width="122" height="42" rx="11" fill="#ecfeff" stroke="#0d9488" stroke-width="2" filter="url(#sh)"/>
<rect x="366.14285714285717" y="70" width="6" height="42" rx="3" fill="#0d9488"/>
<text x="427.14285714285717" y="97" font-family="Inter, 'Segoe UI', 'Helvetica Neue', Arial, sans-serif" font-size="12.5" font-weight="700" fill="#0f172a" text-anchor="middle" style="">Data APIs</text>
<line x1="427.14285714285717" y1="114" x2="427.14285714285717" y2="744" stroke="#94a3b8" stroke-width="1.4" stroke-dasharray="4 6"/>
<rect x="534.7142857142858" y="70" width="122" height="42" rx="11" fill="#eef2ff" stroke="#4f46e5" stroke-width="2" filter="url(#sh)"/>
<rect x="534.7142857142858" y="70" width="6" height="42" rx="3" fill="#4f46e5"/>
<text x="595.7142857142858" y="97" font-family="Inter, 'Segoe UI', 'Helvetica Neue', Arial, sans-serif" font-size="12.5" font-weight="700" fill="#0f172a" text-anchor="middle" style="">Bull / Bear</text>
<line x1="595.7142857142858" y1="114" x2="595.7142857142858" y2="744" stroke="#94a3b8" stroke-width="1.4" stroke-dasharray="4 6"/>
<rect x="703.2857142857143" y="70" width="122" height="42" rx="11" fill="#ecfdf5" stroke="#059669" stroke-width="2" filter="url(#sh)"/>
<rect x="703.2857142857143" y="70" width="6" height="42" rx="3" fill="#059669"/>
<text x="764.2857142857143" y="97" font-family="Inter, 'Segoe UI', 'Helvetica Neue', Arial, sans-serif" font-size="12.5" font-weight="700" fill="#0f172a" text-anchor="middle" style="">Research Mgr</text>
<line x1="764.2857142857143" y1="114" x2="764.2857142857143" y2="744" stroke="#94a3b8" stroke-width="1.4" stroke-dasharray="4 6"/>
<rect x="871.8571428571429" y="70" width="122" height="42" rx="11" fill="#eef2ff" stroke="#4f46e5" stroke-width="2" filter="url(#sh)"/>
<rect x="871.8571428571429" y="70" width="6" height="42" rx="3" fill="#4f46e5"/>
<text x="932.8571428571429" y="97" font-family="Inter, 'Segoe UI', 'Helvetica Neue', Arial, sans-serif" font-size="12.5" font-weight="700" fill="#0f172a" text-anchor="middle" style="">Trader</text>
<line x1="932.8571428571429" y1="114" x2="932.8571428571429" y2="744" stroke="#94a3b8" stroke-width="1.4" stroke-dasharray="4 6"/>
<rect x="1040.4285714285716" y="70" width="122" height="42" rx="11" fill="#eef2ff" stroke="#4f46e5" stroke-width="2" filter="url(#sh)"/>
<rect x="1040.4285714285716" y="70" width="6" height="42" rx="3" fill="#4f46e5"/>
<text x="1101.4285714285716" y="97" font-family="Inter, 'Segoe UI', 'Helvetica Neue', Arial, sans-serif" font-size="12.5" font-weight="700" fill="#0f172a" text-anchor="middle" style="">Risk Team</text>
<line x1="1101.4285714285716" y1="114" x2="1101.4285714285716" y2="744" stroke="#94a3b8" stroke-width="1.4" stroke-dasharray="4 6"/>
<rect x="1205.0" y="70" width="130" height="42" rx="11" fill="#ecfdf5" stroke="#059669" stroke-width="2" filter="url(#sh)"/>
<rect x="1205.0" y="70" width="6" height="42" rx="3" fill="#059669"/>
<text x="1270.0" y="97" font-family="Inter, 'Segoe UI', 'Helvetica Neue', Arial, sans-serif" font-size="12.5" font-weight="700" fill="#0f172a" text-anchor="middle" style="">Portfolio Mgr</text>
<line x1="1270.0" y1="114" x2="1270.0" y2="744" stroke="#94a3b8" stroke-width="1.4" stroke-dasharray="4 6"/>
<line x1="90.0" y1="142" x2="258.57142857142856" y2="142" stroke="#94a3b8" stroke-width="2.2"  marker-end="url(#ar--94a3b8)"/>
<rect x="127.98571428571427" y="123" width="92.60000000000001" height="17" rx="6" fill="#ffffff" opacity="0.96"/>
<text x="174.28571428571428" y="136" font-family="Inter, 'Segoe UI', 'Helvetica Neue', Arial, sans-serif" font-size="11.5" font-weight="600" fill="#0f172a" text-anchor="middle" style="">ticker + date</text>
<line x1="258.57142857142856" y1="192" x2="427.14285714285717" y2="192" stroke="#94a3b8" stroke-width="2.2"  marker-end="url(#ar--94a3b8)"/>
<rect x="191.15714285714287" y="173" width="303.40000000000003" height="17" rx="6" fill="#ffffff" opacity="0.96"/>
<text x="342.8571428571429" y="186" font-family="Inter, 'Segoe UI', 'Helvetica Neue', Arial, sans-serif" font-size="11.5" font-weight="600" fill="#0f172a" text-anchor="middle" style="">fetch prices / news / fundamentals / technicals</text>
<line x1="427.14285714285717" y1="242" x2="258.57142857142856" y2="242" stroke="#94a3b8" stroke-width="2.2" stroke-dasharray="7 5" marker-end="url(#ar--94a3b8)"/>
<rect x="290.3571428571429" y="223" width="105.0" height="17" rx="6" fill="#ffffff" opacity="0.96"/>
<text x="342.8571428571429" y="236" font-family="Inter, 'Segoe UI', 'Helvetica Neue', Arial, sans-serif" font-size="11.5" font-weight="600" fill="#0f172a" text-anchor="middle" style="">raw market data</text>
<line x1="258.57142857142856" y1="292" x2="595.7142857142858" y2="292" stroke="#94a3b8" stroke-width="2.2"  marker-end="url(#ar--94a3b8)"/>
<rect x="368.4428571428572" y="273" width="117.4" height="17" rx="6" fill="#ffffff" opacity="0.96"/>
<text x="427.14285714285717" y="286" font-family="Inter, 'Segoe UI', 'Helvetica Neue', Arial, sans-serif" font-size="11.5" font-weight="600" fill="#0f172a" text-anchor="middle" style="">4 analyst reports</text>
<path d="M 595.7142857142858 334 h 54 v 22 h -54" fill="none" stroke="#94a3b8" stroke-width="2" marker-end="url(#ar--94a3b8)"/>
<text x="657.7142857142858" y="340" font-family="Inter, 'Segoe UI', 'Helvetica Neue', Arial, sans-serif" font-size="11.5" font-weight="normal" fill="#475569" text-anchor="start" style="">bull vs bear debate ×N rounds</text>
<line x1="595.7142857142858" y1="384" x2="764.2857142857143" y2="384" stroke="#94a3b8" stroke-width="2.2"  marker-end="url(#ar--94a3b8)"/>
<rect x="621.3" y="365" width="117.4" height="17" rx="6" fill="#ffffff" opacity="0.96"/>
<text x="680.0" y="378" font-family="Inter, 'Segoe UI', 'Helvetica Neue', Arial, sans-serif" font-size="11.5" font-weight="600" fill="#0f172a" text-anchor="middle" style="">debate transcript</text>
<line x1="764.2857142857143" y1="434" x2="932.8571428571429" y2="434" stroke="#94a3b8" stroke-width="2.2"  marker-end="url(#ar--94a3b8)"/>
<rect x="740.2714285714287" y="415" width="216.6" height="17" rx="6" fill="#ffffff" opacity="0.96"/>
<text x="848.5714285714287" y="428" font-family="Inter, 'Segoe UI', 'Helvetica Neue', Arial, sans-serif" font-size="11.5" font-weight="600" fill="#0f172a" text-anchor="middle" style="">investment plan (long/short/hold)</text>
<line x1="932.8571428571429" y1="484" x2="1101.4285714285716" y2="484" stroke="#94a3b8" stroke-width="2.2"  marker-end="url(#ar--94a3b8)"/>
<rect x="967.7428571428572" y="465" width="98.8" height="17" rx="6" fill="#ffffff" opacity="0.96"/>
<text x="1017.1428571428572" y="478" font-family="Inter, 'Segoe UI', 'Helvetica Neue', Arial, sans-serif" font-size="11.5" font-weight="600" fill="#0f172a" text-anchor="middle" style="">proposed trade</text>
<path d="M 1101.4285714285716 526 h 54 v 22 h -54" fill="none" stroke="#94a3b8" stroke-width="2" marker-end="url(#ar--94a3b8)"/>
<text x="1163.4285714285716" y="532" font-family="Inter, 'Segoe UI', 'Helvetica Neue', Arial, sans-serif" font-size="11.5" font-weight="normal" fill="#475569" text-anchor="start" style="">risky / neutral / safe debate ×N</text>
<line x1="1101.4285714285716" y1="576" x2="1270.0" y2="576" stroke="#94a3b8" stroke-width="2.2"  marker-end="url(#ar--94a3b8)"/>
<rect x="1120.8142857142857" y="557" width="129.8" height="17" rx="6" fill="#ffffff" opacity="0.96"/>
<text x="1185.7142857142858" y="570" font-family="Inter, 'Segoe UI', 'Helvetica Neue', Arial, sans-serif" font-size="11.5" font-weight="600" fill="#0f172a" text-anchor="middle" style="">risk-adjusted trade</text>
<rect x="244.57142857142856" y="606" width="1039.4285714285716" height="30" rx="8" fill="#fffbeb" stroke="#d97706" stroke-width="1.6"/>
<text x="764.2857142857142" y="625" font-family="Inter, 'Segoe UI', 'Helvetica Neue', Arial, sans-serif" font-size="11.5" font-weight="600" fill="#0f172a" text-anchor="middle" style="">every agent calls the cloud LLM; reflection memory updated after the outcome is known</text>
<line x1="1270.0" y1="676" x2="90.0" y2="676" stroke="#94a3b8" stroke-width="2.2" stroke-dasharray="7 5" marker-end="url(#ar--94a3b8)"/>
<rect x="534.5" y="657" width="291.0" height="17" rx="6" fill="#ffffff" opacity="0.96"/>
<text x="680.0" y="670" font-family="Inter, 'Segoe UI', 'Helvetica Neue', Arial, sans-serif" font-size="11.5" font-weight="600" fill="#0f172a" text-anchor="middle" style="">final decision: BUY / SELL / HOLD + rationale</text>
<text x="680.0" y="34" font-family="Inter, 'Segoe UI', 'Helvetica Neue', Arial, sans-serif" font-size="21" font-weight="800" fill="#0f172a" text-anchor="middle" style="">TradingAgents — Sequence of one decision</text>
<text x="680.0" y="58" font-family="Inter, 'Segoe UI', 'Helvetica Neue', Arial, sans-serif" font-size="13.5" font-weight="normal" fill="#475569" text-anchor="middle" style="">Analyst reports → bull/bear debate → trade → risk debate → portfolio verdict</text></svg>